<svg aria-hidden="true" style="position: absolute; width: 0; height: 0; overflow: hidden;" version="1.1" xmlns="http://www.w3.org/2000/svg" xmlns:xlink="http://www.w3.org/1999/xlink">
<defs>
<symbol id="icon-user-rounded" viewBox="0 0 24 32">
<path d="M12 16c-6.625 0-12 5.375-12 12 0 2.211 1.789 4 4 4h16c2.211 0 4-1.789 4-4 0-6.625-5.375-12-12-12zM6 6c0-3.314 2.686-6 6-6s6 2.686 6 6c0 3.314-2.686 6-6 6s-6-2.686-6-6z"></path>
</symbol>
<symbol id="icon-user-circle" viewBox="0 0 32 32">
<path d="M16 25.625q2.125 0 4.469-1.25t3.531-3.063q-0.063-1.75-2.813-2.938t-5.188-1.188-5.188 1.156-2.813 2.969q1.188 1.813 3.531 3.063t4.469 1.25zM16 6.688q-1.625 0-2.813 1.188t-1.188 2.813 1.188 2.813 2.813 1.188 2.813-1.188 1.188-2.813-1.188-2.813-2.813-1.188zM16 2.688q5.5 0 9.406 3.906t3.906 9.406-3.906 9.406-9.406 3.906-9.406-3.906-3.906-9.406 3.906-9.406 9.406-3.906z"></path>
</symbol>
<symbol id="icon-user-box" viewBox="0 0 32 32">
<path d="M8 22.688v1.313h16v-1.313q0-1.813-2.75-2.969t-5.25-1.156-5.25 1.156-2.75 2.969zM20 12q0-1.625-1.188-2.813t-2.813-1.188-2.813 1.188-1.188 2.813 1.188 2.813 2.813 1.188 2.813-1.188 1.188-2.813zM4 6.688q0-1.125 0.781-1.906t1.906-0.781h18.625q1.063 0 1.875 0.813t0.813 1.875v18.625q0 1.063-0.813 1.875t-1.875 0.813h-18.625q-1.125 0-1.906-0.781t-0.781-1.906v-18.625z"></path>
</symbol>
</defs>
</svg>
